# xmcd
#
# Track frame offsets: 
#        150
#        18984
#        49105
#        64092
#        84032
#        99449
#        116023
#        129883
#        150204
#        164465
#        183064
#
# Disc length: 2757 seconds
#
# Revision: 1
# Processed by: cddbd v1.5.2PL0 Copyright (c) Steve Scherf et al.
# Submitted via: ExactAudioCopy v1.0b3
#
DISCID=730ac30b
DTITLE=Various Artist - Blues You Can Use
DYEAR=1999
DGENRE=Blues
TTITLE0=Grady Champion - Smilin' Again
TTITLE1=Duke Robillard - Pony Blues
TTITLE2=Curtis Salgado - Cookie Dough
TTITLE3=Mem Shannon - Who Are They
TTITLE4=Lucinda Williams and Taj Mahal - Going Back Home
TTITLE5=Deanna Bogart - Okay, I'll Play the Blues
TTITLE6=Keith Frank - Sometimes We Make You Move Your Feet
TTITLE7=Debbie Davies - Stepped in the Blues
TTITLE8=R.L. Burnside - Long Haired Doney
TTITLE9=Anders Osborne - Boxes, Bills and Pain
TTITLE10=Sue Foley - Baltimore Skyline
EXTD=
EXTT0=
EXTT1=
EXTT2=
EXTT3=
EXTT4=
EXTT5=
EXTT6=
EXTT7=
EXTT8=
EXTT9=
EXTT10=
PLAYORDER=
